<svg id="Layer_1" xmlns="http://www.w3.org/2000/svg" viewBox="-11.5 270.7 612 509"><g opacity=".55"><path fill="#FFF" d="M293.6 428.3c9.1-5.6 9.1-14 0-19.6l-118.3-67.9c-9.1-5.6-16.8-.7-16.8 9.8v135.7c0 10.5 7.7 15.4 16.8 9.8l118.3-67.8zM17.9 408.7c-9.1 5.6-9.1 14 0 19.6l95.8 55.2c9.1 5.6 16.8.7 16.8-9.8V363.3c0-10.5-7.7-14.7-16.8-9.8l-95.8 55.2zM395 386.4c-9.1 5.6-9.1 14 0 19.6l182.6 105.6c9.8 4.9 16.8.7 16.8-9.8V290.5c0-10.5-7.6-14.7-16.8-9.8L395 386.4zM369.1 631.3c0 10.5 7.6 15.4 16.8 9.8l161-93.1c9.1-5.6 9.1-14 0-19.6L386 435.3c-9.1-5.6-16.8-.7-16.8 9.8l-.1 186.2zM16.5 458.4C7.4 452.8-.3 457-.3 468.2v86c0 10.5 7.7 15.4 16.8 9.8l74.8-43.4c9.1-5.6 9.1-14 0-19.6l-74.8-42.6zM320.9 447.9c9.1-5.6 16.8-.7 16.8 9.8v160.9c0 10.5-7.6 15.4-16.8 9.8L181.7 548c-9.1-5.6-9.1-14 0-19.6l139.2-80.5z"/></g><text transform="translate(-5 747.262)" opacity=".55" fill="#FFF" font-family="'Lato-Thin'" font-size="121">720</text><text transform="translate(215.283 747.262)" opacity=".55" fill="#FFF" font-family="'Lato-Regular'" font-size="121">dreams</text></svg>