<svg id="Layer_1" xmlns="http://www.w3.org/2000/svg" viewBox="-4 86 620 620"><radialGradient id="SVGID_1_" cx="24.937" cy="20.774" r="16.823" gradientTransform="matrix(8.432 0 0 8.432 -44.617 240.736)" gradientUnits="userSpaceOnUse"><stop offset="0" stop-color="#3A919A"/><stop offset="1" stop-color="#00746E"/></radialGradient><path fill="url(#SVGID_1_)" d="M302.6 345.5c9.3-5.7 9.3-14.3 0-20L182 256.3c-9.3-5.7-17.1-.7-17.1 10v138.4c0 10.7 7.8 15.7 17.1 10l120.6-69.2z"/><radialGradient id="SVGID_2_" cx="21.557" cy="19.288" r="13.911" gradientTransform="matrix(8.432 0 0 8.432 -44.617 240.736)" gradientUnits="userSpaceOnUse"><stop offset="0" stop-color="#C0C977"/><stop offset="1" stop-color="#96A956"/></radialGradient><path fill="url(#SVGID_2_)" d="M21.5 325.5c-9.3 5.7-9.3 14.3 0 20l97.7 56.3c9.3 5.7 17.1.7 17.1-10V279.2c0-10.7-7.8-15-17.1-10l-97.7 56.3z"/><radialGradient id="SVGID_3_" cx="77.662" cy="22.485" r="24.178" gradientTransform="matrix(8.432 0 0 8.432 -44.617 240.736)" gradientUnits="userSpaceOnUse"><stop offset="0" stop-color="#F04E37"/><stop offset="1" stop-color="#DA2128"/></radialGradient><path fill="url(#SVGID_3_)" d="M406 302.7c-9.3 5.7-9.3 14.3 0 20l186.2 107.7c10 5 17.1.7 17.1-10V205c0-10.7-7.8-15-17.1-10L406 302.7z"/><g><radialGradient id="SVGID_4_" cx="50.569" cy="13.422" r="21.422" gradientTransform="matrix(8.432 0 0 8.432 -44.617 240.736)" gradientUnits="userSpaceOnUse"><stop offset="0" stop-color="#F79552"/><stop offset="1" stop-color="#F47421"/></radialGradient><path fill="url(#SVGID_4_)" d="M379.6 552.4c0 10.7 7.8 15.7 17.1 10l164.1-94.9c9.3-5.7 9.3-14.3 0-20l-164.1-94.9c-9.3-5.7-17.1-.7-17.1 10v189.8z"/></g><g><radialGradient id="SVGID_5_" cx="17.453" cy="22.417" r="11.423" gradientTransform="matrix(8.432 0 0 8.432 -44.617 240.736)" gradientUnits="userSpaceOnUse"><stop offset="0" stop-color="#FFD773"/><stop offset="1" stop-color="#FEC45F"/></radialGradient><path fill="url(#SVGID_5_)" d="M20.1 376.2c-9.3-5.7-17.1-1.4-17.1 10v87.7c0 10.7 7.8 15.7 17.1 10l76.3-44.2c9.3-5.7 9.3-14.3 0-20l-76.3-43.5z"/></g><g><radialGradient id="SVGID_6_" cx="580.541" cy="25.672" r="19.202" gradientTransform="matrix(-8.432 0 0 8.432 5077.653 240.736)" gradientUnits="userSpaceOnUse"><stop offset="0" stop-color="#52C6D8"/><stop offset="1" stop-color="#4EB5BF"/></radialGradient><path fill="url(#SVGID_6_)" d="M330.4 365.5c9.3-5.7 17.1-.7 17.1 10v164.1c0 10.7-7.8 15.7-17.1 10l-141.9-82c-9.3-5.7-9.3-14.3 0-20l141.9-82.1z"/></g></svg>