<?xml version="1.0" encoding="utf-8"?>
<!-- Generator: Adobe Illustrator 18.1.1, SVG Export Plug-In . SVG Version: 6.00 Build 0)  -->
<svg version="1.1" id="Layer_1" xmlns="http://www.w3.org/2000/svg" xmlns:xlink="http://www.w3.org/1999/xlink" x="0px" y="0px"
	 viewBox="-12.5 126.7 642 522.5" enable-background="new -12.5 126.7 642 522.5" xml:space="preserve">
<rect x="-12" y="127.2" display="none" fill="#F98AE4" stroke="#000000" stroke-miterlimit="10" width="641" height="501"/>
<g>
	<g>
		
			<radialGradient id="SVGID_1_" cx="24.5816" cy="777.6294" r="16.8233" gradientTransform="matrix(8.4325 0 0 -8.4325 -44.6175 6919.2754)" gradientUnits="userSpaceOnUse">
			<stop  offset="0" style="stop-color:#3A919A"/>
			<stop  offset="1" style="stop-color:#00746E"/>
		</radialGradient>
		<path fill="url(#SVGID_1_)" d="M299.6,291.5c9.3-5.7,9.3-14.3,0-20L179,202.3c-9.3-5.7-17.1-0.7-17.1,10v138.4
			c0,10.7,7.8,15.7,17.1,10L299.6,291.5z"/>
	</g>
	<g>
		
			<radialGradient id="SVGID_2_" cx="21.2013" cy="779.1157" r="13.9114" gradientTransform="matrix(8.4325 0 0 -8.4325 -44.6175 6919.2754)" gradientUnits="userSpaceOnUse">
			<stop  offset="0" style="stop-color:#C0C977"/>
			<stop  offset="1" style="stop-color:#96A956"/>
		</radialGradient>
		<path fill="url(#SVGID_2_)" d="M18.5,271.5c-9.3,5.7-9.3,14.3,0,20l97.7,56.3c9.3,5.7,17.1,0.7,17.1-10V225.2
			c0-10.7-7.8-15-17.1-10L18.5,271.5z"/>
	</g>
	<g>
		
			<radialGradient id="SVGID_3_" cx="77.3061" cy="775.9184" r="24.1781" gradientTransform="matrix(8.4325 0 0 -8.4325 -44.6175 6919.2754)" gradientUnits="userSpaceOnUse">
			<stop  offset="0" style="stop-color:#F04E37"/>
			<stop  offset="1" style="stop-color:#DA2128"/>
		</radialGradient>
		<path fill="url(#SVGID_3_)" d="M403,248.7c-9.3,5.7-9.3,14.3,0,20l186.2,107.7c10,5,17.1,0.7,17.1-10V151c0-10.7-7.8-15-17.1-10
			L403,248.7z"/>
	</g>
	<g>
		
			<radialGradient id="SVGID_4_" cx="50.2136" cy="784.9815" r="21.4222" gradientTransform="matrix(8.4325 0 0 -8.4325 -44.6175 6919.2754)" gradientUnits="userSpaceOnUse">
			<stop  offset="0" style="stop-color:#F79552"/>
			<stop  offset="1" style="stop-color:#F47421"/>
		</radialGradient>
		<path fill="url(#SVGID_4_)" d="M376.6,498.4c0,10.7,7.8,15.7,17.1,10l164.1-94.9c9.3-5.7,9.3-14.3,0-20l-164.1-94.9
			c-9.3-5.7-17.1-0.7-17.1,10L376.6,498.4L376.6,498.4z"/>
	</g>
	<g>
		
			<radialGradient id="SVGID_5_" cx="17.0976" cy="775.9864" r="11.423" gradientTransform="matrix(8.4325 0 0 -8.4325 -44.6175 6919.2754)" gradientUnits="userSpaceOnUse">
			<stop  offset="0" style="stop-color:#FFD773"/>
			<stop  offset="1" style="stop-color:#FEC45F"/>
		</radialGradient>
		<path fill="url(#SVGID_5_)" d="M17.1,322.2c-9.3-5.7-17.1-1.4-17.1,10v87.7c0,10.7,7.8,15.7,17.1,10l76.3-44.2
			c9.3-5.7,9.3-14.3,0-20L17.1,322.2z"/>
	</g>
	<g>
		
			<radialGradient id="SVGID_6_" cx="580.8972" cy="772.7313" r="19.2023" gradientTransform="matrix(-8.4325 0 0 -8.4325 5077.6533 6919.2754)" gradientUnits="userSpaceOnUse">
			<stop  offset="0" style="stop-color:#52C6D8"/>
			<stop  offset="1" style="stop-color:#4EB5BF"/>
		</radialGradient>
		<path fill="url(#SVGID_6_)" d="M327.4,311.5c9.3-5.7,17.1-0.7,17.1,10v164.1c0,10.7-7.8,15.7-17.1,10l-141.9-82
			c-9.3-5.7-9.3-14.3,0-20L327.4,311.5z"/>
	</g>
</g>
<text transform="matrix(1 0 0 1 1.4608 616.6852)" fill="#FFFFFF" font-family="'Lato-Thin'" font-size="121.1867">720</text>
<text transform="matrix(1 0 0 1 220.5924 616.6852)" fill="#FFFFFF" font-family="'Lato-Regular'" font-size="121.1867">dreams</text>
</svg>
