<?xml version="1.0" encoding="utf-8"?>
<!-- Generator: Adobe Illustrator 18.1.1, SVG Export Plug-In . SVG Version: 6.00 Build 0)  -->
<svg version="1.1" id="Layer_1" xmlns="http://www.w3.org/2000/svg" xmlns:xlink="http://www.w3.org/1999/xlink" x="0px" y="0px"
	 viewBox="-4 86 620 620" enable-background="new -4 86 620 620" xml:space="preserve">
<g>
	<g>
		
			<radialGradient id="SVGID_1_" cx="24.9374" cy="20.7744" r="16.8233" gradientTransform="matrix(8.4325 0 0 8.4325 -44.6175 240.7355)" gradientUnits="userSpaceOnUse">
			<stop  offset="0" style="stop-color:#3A919A"/>
			<stop  offset="1" style="stop-color:#00746E"/>
		</radialGradient>
		<path fill="url(#SVGID_1_)" d="M302.6,345.5c9.3-5.7,9.3-14.3,0-20L182,256.3c-9.3-5.7-17.1-0.7-17.1,10v138.4
			c0,10.7,7.8,15.7,17.1,10L302.6,345.5z"/>
	</g>
	<g>
		
			<radialGradient id="SVGID_2_" cx="21.5571" cy="19.2881" r="13.9114" gradientTransform="matrix(8.4325 0 0 8.4325 -44.6175 240.7355)" gradientUnits="userSpaceOnUse">
			<stop  offset="0" style="stop-color:#C0C977"/>
			<stop  offset="1" style="stop-color:#96A956"/>
		</radialGradient>
		<path fill="url(#SVGID_2_)" d="M21.5,325.5c-9.3,5.7-9.3,14.3,0,20l97.7,56.3c9.3,5.7,17.1,0.7,17.1-10V279.2
			c0-10.7-7.8-15-17.1-10L21.5,325.5z"/>
	</g>
	<g>
		
			<radialGradient id="SVGID_3_" cx="77.6619" cy="22.4854" r="24.1781" gradientTransform="matrix(8.4325 0 0 8.4325 -44.6175 240.7355)" gradientUnits="userSpaceOnUse">
			<stop  offset="0" style="stop-color:#F04E37"/>
			<stop  offset="1" style="stop-color:#DA2128"/>
		</radialGradient>
		<path fill="url(#SVGID_3_)" d="M406,302.7c-9.3,5.7-9.3,14.3,0,20l186.2,107.7c10,5,17.1,0.7,17.1-10V205c0-10.7-7.8-15-17.1-10
			L406,302.7z"/>
	</g>
	<g>
		
			<radialGradient id="SVGID_4_" cx="50.5694" cy="13.4223" r="21.4222" gradientTransform="matrix(8.4325 0 0 8.4325 -44.6175 240.7355)" gradientUnits="userSpaceOnUse">
			<stop  offset="0" style="stop-color:#F79552"/>
			<stop  offset="1" style="stop-color:#F47421"/>
		</radialGradient>
		<path fill="url(#SVGID_4_)" d="M379.6,552.4c0,10.7,7.8,15.7,17.1,10l164.1-94.9c9.3-5.7,9.3-14.3,0-20l-164.1-94.9
			c-9.3-5.7-17.1-0.7-17.1,10L379.6,552.4L379.6,552.4z"/>
	</g>
	<g>
		
			<radialGradient id="SVGID_5_" cx="17.4534" cy="22.4174" r="11.423" gradientTransform="matrix(8.4325 0 0 8.4325 -44.6175 240.7355)" gradientUnits="userSpaceOnUse">
			<stop  offset="0" style="stop-color:#FFD773"/>
			<stop  offset="1" style="stop-color:#FEC45F"/>
		</radialGradient>
		<path fill="url(#SVGID_5_)" d="M20.1,376.2c-9.3-5.7-17.1-1.4-17.1,10v87.7c0,10.7,7.8,15.7,17.1,10l76.3-44.2
			c9.3-5.7,9.3-14.3,0-20L20.1,376.2z"/>
	</g>
	<g>
		
			<radialGradient id="SVGID_6_" cx="580.5414" cy="25.6725" r="19.2023" gradientTransform="matrix(-8.4325 0 0 8.4325 5077.6533 240.7355)" gradientUnits="userSpaceOnUse">
			<stop  offset="0" style="stop-color:#52C6D8"/>
			<stop  offset="1" style="stop-color:#4EB5BF"/>
		</radialGradient>
		<path fill="url(#SVGID_6_)" d="M330.4,365.5c9.3-5.7,17.1-0.7,17.1,10v164.1c0,10.7-7.8,15.7-17.1,10l-141.9-82
			c-9.3-5.7-9.3-14.3,0-20L330.4,365.5z"/>
	</g>
</g>
</svg>
