<?xml version="1.0" encoding="utf-8"?>
<!-- Generator: Adobe Illustrator 18.1.1, SVG Export Plug-In . SVG Version: 6.00 Build 0)  -->
<svg version="1.1" id="Layer_1" xmlns="http://www.w3.org/2000/svg" xmlns:xlink="http://www.w3.org/1999/xlink" x="0px" y="0px"
	 viewBox="-11.5 270.7 612 509" enable-background="new -11.5 270.7 612 509" xml:space="preserve">
<rect x="-11" y="271.2" display="none" fill="#FF8FAF" stroke="#000000" stroke-miterlimit="10" width="611" height="484.6"/>
<g opacity="0.55">
	<g>
		<path fill="#FFFFFF" d="M293.6,428.3c9.1-5.6,9.1-14,0-19.6l-118.3-67.9c-9.1-5.6-16.8-0.7-16.8,9.8v135.7
			c0,10.5,7.7,15.4,16.8,9.8L293.6,428.3z"/>
	</g>
	<g>
		<path fill="#FFFFFF" d="M17.9,408.7c-9.1,5.6-9.1,14,0,19.6l95.8,55.2c9.1,5.6,16.8,0.7,16.8-9.8V363.3c0-10.5-7.7-14.7-16.8-9.8
			L17.9,408.7z"/>
	</g>
	<g>
		<path fill="#FFFFFF" d="M395,386.4c-9.1,5.6-9.1,14,0,19.6l182.6,105.6c9.8,4.9,16.8,0.7,16.8-9.8V290.5c0-10.5-7.6-14.7-16.8-9.8
			L395,386.4z"/>
	</g>
	<g>
		<path fill="#FFFFFF" d="M369.1,631.3c0,10.5,7.6,15.4,16.8,9.8l161-93.1c9.1-5.6,9.1-14,0-19.6L386,435.3
			c-9.1-5.6-16.8-0.7-16.8,9.8L369.1,631.3L369.1,631.3z"/>
	</g>
	<g>
		<path fill="#FFFFFF" d="M16.5,458.4c-9.1-5.6-16.8-1.4-16.8,9.8v86c0,10.5,7.7,15.4,16.8,9.8l74.8-43.4c9.1-5.6,9.1-14,0-19.6
			L16.5,458.4z"/>
	</g>
	<g>
		<path fill="#FFFFFF" d="M320.9,447.9c9.1-5.6,16.8-0.7,16.8,9.8v160.9c0,10.5-7.6,15.4-16.8,9.8L181.7,548c-9.1-5.6-9.1-14,0-19.6
			L320.9,447.9z"/>
	</g>
</g>
<text transform="matrix(1 0 0 1 -5 747.2617)" opacity="0.55" fill="#FFFFFF" enable-background="new    " font-family="'Lato-Thin'" font-size="121">720</text>
<text transform="matrix(1 0 0 1 215.2832 747.2617)" opacity="0.55" fill="#FFFFFF" enable-background="new    " font-family="'Lato-Regular'" font-size="121">dreams</text>
</svg>
